<?xml version="1.0" encoding="utf-8" standalone="yes"?>
<!DOCTYPE svg PUBLIC "-//W3C//DTD SVG 1.1//EN" "http://www.w3.org/Graphics/SVG/1.1/DTD/svg11.dtd">
<svg width="74" height="74" viewBox="0 0 74 74" style="fill:none;stroke:none;fill-rule:evenodd;clip-rule:evenodd;stroke-linecap:round;stroke-linejoin:round;stroke-miterlimit:1.5;" version="1.1" xmlns="http://www.w3.org/2000/svg" xmlns:xlink="http://www.w3.org/1999/xlink"><g id="items" style="isolation: isolate"><g id="blend" style="mix-blend-mode: normal"><g id="g-root-ic_fist_1lt0qr0pbbcwe-fill" data-item-order="1000000000" transform="translate(3, 3)"></g><g id="g-root-ic_fist_1lt0qr0pbbcwe-stroke" data-item-order="1000000000" transform="translate(3, 3)"><g id="ic_fist_1lt0qr0pbbcwe-stroke" fill="none" stroke-linecap="round" stroke-linejoin="round" stroke-miterlimit="4" stroke="#7f64e9" stroke-width="2"><g><path d="M 13 26C 13 28.761423 15.238577 31 18 31C 20.761425 31 23 28.761423 23 26C 23 23.238577 20.761425 21 18 21C 15.238577 21 13 23.238577 13 26M 45 26C 45 28.761423 47.238575 31 50 31C 52.761425 31 55 28.761423 55 26C 55 23.238577 52.761425 21 50 21C 47.238575 21 45 23.238577 45 26M 43 57L 43 40.944C 37.867256 40.469925 33.501396 37.003616 31.875999 32.112L 30.153999 26.950001C 29.873705 26.111729 29.977341 25.192511 30.437248 24.437693C 30.897156 23.682875 31.666523 23.169283 32.540001 23.034C 34.035694 22.849621 35.449196 23.761366 35.898003 25.200001L 37.57 30.214001C 38.521683 33.068474 41.191067 34.995422 44.200001 35L 52.987999 35C 55.19714 35 56.987999 36.790863 56.987999 39L 56.987999 57M 30.837999 29L 30.438 30.214001C 29.483528 33.076859 26.801769 35.005756 23.784 35L 15.004 35C 12.794861 35 11.004 36.790863 11.004 39L 11.004 57M 25 57L 25 40.944C 28.543409 40.616394 31.796999 38.848614 34 36.054001M 33 11L 33 15M 40.827999 15.172L 38 18M 25.172001 15.172L 28 18"></path></g></g></g></g></g></svg>